<svg width="26" height="26" viewBox="0 0 26 26" fill="none" xmlns="http://www.w3.org/2000/svg">
<path opacity="0.2" d="M17.905 12.9631L25.2808 5.58723C26.2397 4.70213 26.2397 3.22695 25.2808 2.34184L23.6582 0.719149C22.773 -0.239716 21.2979 -0.239716 20.4128 0.719149L13.0369 8.09504L5.58723 0.719149C4.70213 -0.239716 3.22695 -0.239716 2.34184 0.719149L0.719149 2.34184C-0.239716 3.22695 -0.239716 4.70213 0.719149 5.58723L8.09504 12.9631L0.719149 20.4128C-0.239716 21.2979 -0.239716 22.773 0.719149 23.6582L2.34184 25.2808C3.22695 26.2397 4.70213 26.2397 5.58723 25.2808L13.0369 17.905L20.4128 25.2808C21.2979 26.2397 22.773 26.2397 23.6582 25.2808L25.2808 23.6582C26.2397 22.773 26.2397 21.2979 25.2808 20.4128L17.905 12.9631Z" fill="black"/>
</svg>
