<svg width="32" height="32" viewBox="0 0 32 32" fill="none" xmlns="http://www.w3.org/2000/svg">
<path d="M5.78571 9.93878H26.2143C26.6071 9.93878 27 9.65306 27 9.28571V7.65306C27 7.32653 26.6071 7 26.2143 7H5.78571C5.34375 7 5 7.32653 5 7.65306V9.28571C5 9.65306 5.34375 9.93878 5.78571 9.93878ZM5.78571 16.4694H26.2143C26.6071 16.4694 27 16.1837 27 15.8163V14.1837C27 13.8571 26.6071 13.5306 26.2143 13.5306H5.78571C5.34375 13.5306 5 13.8571 5 14.1837V15.8163C5 16.1837 5.34375 16.4694 5.78571 16.4694ZM5.78571 23H26.2143C26.6071 23 27 22.7143 27 22.3469V20.7143C27 20.3878 26.6071 20.0612 26.2143 20.0612H5.78571C5.34375 20.0612 5 20.3878 5 20.7143V22.3469C5 22.7143 5.34375 23 5.78571 23Z" fill="#333333"/>
</svg>
